<svg width="230" height="95" viewBox="0 0 230 95" fill="none" xmlns="http://www.w3.org/2000/svg">
<path d="M0 43.1907C0 19.3371 19.4837 0 43.518 0C67.5524 0 87.0362 19.3371 87.0362 43.1907V86.3816H43.518C19.4837 86.3816 0 67.0443 0 43.1907Z" fill="#3873D3"/>
<path d="M73.8881 43.2021C73.8881 59.7519 60.2958 73.168 43.5292 73.168C26.7625 73.168 13.1704 59.7519 13.1704 43.2021C13.1704 26.6524 26.7625 13.2361 43.5292 13.2361C60.2958 13.2361 73.8881 26.6524 73.8881 43.2021Z" fill="white"/>
<path d="M59.9266 38.2089C60.089 38.2089 60.2205 38.3395 60.2205 38.5008V47.984C60.2205 48.1452 60.089 48.2762 59.9266 48.2762H48.7514V59.3935C48.7514 59.5546 48.6194 59.6857 48.457 59.6857H38.8504C38.6879 59.6857 38.5563 59.5546 38.5563 59.3935V48.2762H27.381C27.2186 48.2762 27.0869 48.1452 27.0869 47.984V38.5008C27.0869 38.3395 27.2186 38.2089 27.381 38.2089H38.5563V27.1751C38.5563 27.0139 38.6879 26.8832 38.8504 26.8832H48.457C48.6194 26.8832 48.7514 27.0139 48.7514 27.1751V38.2089H59.9266Z" fill="#EC3E34"/>
<path d="M118.081 45.0193C116.043 47.016 113.555 48.0142 110.616 48.0142C107.678 48.0142 105.19 47.016 103.152 45.0193C101.14 42.9964 100.134 40.5269 100.134 37.6108C100.134 34.6946 101.14 32.2382 103.152 30.2416C105.19 28.2187 107.678 27.2072 110.616 27.2072C113.555 27.2072 116.043 28.2187 118.081 30.2416C120.119 32.2382 121.138 34.6946 121.138 37.6108C121.138 40.5269 120.119 42.9964 118.081 45.0193ZM106.765 41.5121C107.797 42.5367 109.081 43.049 110.616 43.049C112.152 43.049 113.435 42.5367 114.468 41.5121C115.5 40.4875 116.016 39.1871 116.016 37.6108C116.016 36.0344 115.5 34.734 114.468 33.7094C113.435 32.6849 112.152 32.1725 110.616 32.1725C109.081 32.1725 107.797 32.6849 106.765 33.7094C105.759 34.734 105.256 36.0344 105.256 37.6108C105.256 39.1871 105.759 40.4875 106.765 41.5121ZM129.04 33.3548C129.04 33.8802 129.384 34.3137 130.072 34.6552C130.787 34.9704 131.648 35.2595 132.653 35.5222C133.659 35.7586 134.665 36.0739 135.671 36.4679C136.677 36.8357 137.524 37.4662 138.212 38.3595C138.927 39.2527 139.284 40.3693 139.284 41.7091C139.284 43.732 138.517 45.2952 136.982 46.3987C135.473 47.4757 133.58 48.0142 131.303 48.0142C127.227 48.0142 124.448 46.4509 122.965 43.3248L127.412 40.8422C127.995 42.5498 129.292 43.4036 131.303 43.4036C133.13 43.4036 134.043 42.8388 134.043 41.7091C134.043 41.1837 133.686 40.7633 132.971 40.4481C132.283 40.1066 131.436 39.8044 130.43 39.5417C129.424 39.279 128.418 38.9506 127.412 38.5565C126.407 38.1624 125.546 37.5451 124.831 36.7044C124.143 35.8374 123.799 34.7603 123.799 33.473C123.799 31.5289 124.514 30.0051 125.943 28.9017C127.399 27.7721 129.199 27.2072 131.343 27.2072C132.958 27.2072 134.427 27.575 135.75 28.3106C137.074 29.02 138.12 30.0445 138.887 31.3844L134.52 33.7489C133.884 32.409 132.826 31.7391 131.343 31.7391C130.681 31.7391 130.126 31.8836 129.676 32.1725C129.252 32.4615 129.04 32.8556 129.04 33.3548ZM159.222 45.0193C157.183 47.016 154.695 48.0142 151.757 48.0142C148.819 48.0142 146.33 47.016 144.292 45.0193C142.281 42.9964 141.274 40.5269 141.274 37.6108C141.274 34.6946 142.281 32.2382 144.292 30.2416C146.33 28.2187 148.819 27.2072 151.757 27.2072C154.695 27.2072 157.183 28.2187 159.222 30.2416C161.26 32.2382 162.279 34.6946 162.279 37.6108C162.279 40.5269 161.26 42.9964 159.222 45.0193ZM147.905 41.5121C148.938 42.5367 150.222 43.049 151.757 43.049C153.292 43.049 154.576 42.5367 155.608 41.5121C156.641 40.4875 157.157 39.1871 157.157 37.6108C157.157 36.0344 156.641 34.734 155.608 33.7094C154.576 32.6849 153.292 32.1725 151.757 32.1725C150.222 32.1725 148.938 32.6849 147.905 33.7094C146.9 34.734 146.397 36.0344 146.397 37.6108C146.397 39.1871 146.9 40.4875 147.905 41.5121ZM176.92 27.2072C179.091 27.2072 180.878 27.9297 182.281 29.3746C183.71 30.8196 184.425 32.8162 184.425 35.3645V47.4626H179.303V35.9951C179.303 34.6815 178.945 33.6832 178.231 33.0001C177.516 32.2908 176.563 31.9361 175.372 31.9361C174.048 31.9361 172.989 32.3433 172.196 33.1577C171.401 33.9721 171.004 35.1938 171.004 36.8226V47.4626H165.882V27.759H171.004V29.9657C172.249 28.1268 174.221 27.2072 176.92 27.2072ZM116.255 67.3798H121.376V87.0835H116.255V84.7585C114.719 86.676 112.562 87.635 109.783 87.635C107.136 87.635 104.859 86.6369 102.953 84.6401C101.074 82.6171 100.134 80.1476 100.134 77.2314C100.134 74.3157 101.074 71.8592 102.953 69.8624C104.859 67.8395 107.136 66.8282 109.783 66.8282C112.562 66.8282 114.719 67.7868 116.255 69.7048V67.3798ZM106.804 81.2511C107.837 82.2759 109.147 82.7882 110.735 82.7882C112.324 82.7882 113.634 82.2759 114.667 81.2511C115.725 80.2003 116.255 78.8604 116.255 77.2314C116.255 75.6029 115.725 74.276 114.667 73.2513C113.634 72.2005 112.324 71.675 110.735 71.675C109.147 71.675 107.837 72.2005 106.804 73.2513C105.772 74.276 105.256 75.6029 105.256 77.2314C105.256 78.8604 105.772 80.2003 106.804 81.2511ZM137.576 66.8282C140.249 66.8282 142.526 67.8395 144.405 69.8624C146.311 71.8592 147.264 74.3157 147.264 77.2314C147.264 80.1476 146.311 82.6171 144.405 84.6401C142.526 86.6369 140.249 87.635 137.576 87.635C134.796 87.635 132.652 86.676 131.144 84.7585V94.9649H126.021V67.3798H131.144V69.7048C132.652 67.7868 134.796 66.8282 137.576 66.8282ZM132.692 81.2511C133.724 82.2759 135.034 82.7882 136.623 82.7882C138.211 82.7882 139.521 82.2759 140.554 81.2511C141.612 80.2003 142.142 78.8604 142.142 77.2314C142.142 75.6029 141.612 74.276 140.554 73.2513C139.521 72.2005 138.211 71.675 136.623 71.675C135.034 71.675 133.724 72.2005 132.692 73.2513C131.659 74.276 131.144 75.6029 131.144 77.2314C131.144 78.8604 131.659 80.2003 132.692 81.2511ZM161.806 72.2662H157.319V80.4632C157.319 81.1462 157.491 81.6451 157.835 81.9607C158.179 82.2759 158.682 82.4596 159.344 82.5122C160.006 82.5383 160.826 82.5253 161.806 82.4726V87.0835C158.285 87.4774 155.797 87.1492 154.341 86.0984C152.911 85.0475 152.197 83.1691 152.197 80.4632V72.2662H148.742V67.3798H152.197V63.3997L157.319 61.8626V67.3798H161.806V72.2662ZM169.124 79.32C169.813 81.7896 171.679 83.0246 174.723 83.0246C176.682 83.0246 178.164 82.3677 179.17 81.0539L183.3 83.4186C181.341 86.2294 178.455 87.635 174.643 87.635C171.361 87.635 168.727 86.6499 166.742 84.6797C164.757 82.7094 163.764 80.2264 163.764 77.2314C163.764 74.263 164.744 71.7934 166.702 69.8232C168.661 67.8264 171.176 66.8282 174.247 66.8282C177.159 66.8282 179.554 67.8264 181.433 69.8232C183.339 71.8195 184.292 74.2891 184.292 77.2314C184.292 77.8883 184.226 78.5848 184.093 79.32H169.124ZM169.045 75.3796H179.17C178.879 74.0397 178.27 73.0415 177.344 72.3846C176.444 71.7277 175.412 71.3995 174.247 71.3995C172.87 71.3995 171.732 71.7538 170.832 72.4634C169.932 73.1464 169.336 74.1185 169.045 75.3796ZM206.172 87.0835H200.217L192.99 78.1382V87.0835H187.868V59.4984H192.99V76.0495L199.819 67.3798H205.934L197.953 77.1134L206.172 87.0835ZM222.383 67.3798H227.504V87.0835H222.383V84.7585C220.847 86.676 218.69 87.635 215.911 87.635C213.264 87.635 210.987 86.6369 209.081 84.6401C207.202 82.6171 206.262 80.1476 206.262 77.2314C206.262 74.3157 207.202 71.8592 209.081 69.8624C210.987 67.8395 213.264 66.8282 215.911 66.8282C218.69 66.8282 220.847 67.7868 222.383 69.7048V67.3798ZM212.932 81.2511C213.965 82.2759 215.275 82.7882 216.863 82.7882C218.451 82.7882 219.762 82.2759 220.794 81.2511C221.853 80.2003 222.383 78.8604 222.383 77.2314C222.383 75.6029 221.853 74.276 220.794 73.2513C219.762 72.2005 218.451 71.675 216.863 71.675C215.275 71.675 213.965 72.2005 212.932 73.2513C211.9 74.276 211.384 75.6029 211.384 77.2314C211.384 78.8604 211.9 80.2003 212.932 81.2511Z" fill="#3873D3"/>
</svg>
